<?xml version="1.0" encoding="utf-8"?>
<!-- Generator: Adobe Illustrator 24.0.3, SVG Export Plug-In . SVG Version: 6.00 Build 0)  -->
<svg version="1.1" id="clapper" xmlns="http://www.w3.org/2000/svg" xmlns:xlink="http://www.w3.org/1999/xlink" x="0px" y="0px"
	 viewBox="0 0 313.8 336.5" style="enable-background:new 0 0 313.8 336.5;" xml:space="preserve">
<style type="text/css">
	.st0{fill:#FFFFFF;}
</style>
<path id="body" d="M258.9,314.1H47.8c-6.6,0-12-5.4-12-12v-129c0-6.6,5.4-12,12-12H259c6.6,0,12,5.4,12,12v129
	C270.9,308.7,265.5,314.1,258.9,314.1z"/>
<path id="top" d="M244.5,53.2L52.8,163.9c-5.7,3.3-13.1,1.3-16.4-4.4L25.7,141c-3.3-5.7-1.3-13.1,4.4-16.4L221.8,14
	c5.7-3.3,13.1-1.3,16.4,4.4l10.7,18.5C252.2,42.6,250.2,49.9,244.5,53.2z"/>
<polygon id="white6" class="st0" points="102.3,196 53.4,196 72.9,168.1 121.9,168.1 "/>
<polygon id="white5" class="st0" points="165.7,196 118.2,196 137.2,168.1 184.8,168.1 "/>
<polygon id="white4" class="st0" points="229.8,195.4 180.9,195.4 200.4,167.5 249.4,167.5 "/>
<polygon id="white3" class="st0" points="109,122.9 67.5,146.7 70.2,113 111.7,89.2 "/>
<polygon id="white2" class="st0" points="164.2,90.4 123.6,113.7 125.9,80.1 166.5,56.8 "/>
<polygon id="white1" class="st0" points="218.2,59.4 176.4,83.4 179.2,49.6 221,25.6 "/>
</svg>
