<?xml version="1.0" encoding="utf-8"?>
<!-- Generator: Adobe Illustrator 24.0.3, SVG Export Plug-In . SVG Version: 6.00 Build 0)  -->
<svg version="1.1" id="moviecamera" xmlns="http://www.w3.org/2000/svg" xmlns:xlink="http://www.w3.org/1999/xlink" x="0px"
	 y="0px" viewBox="0 0 313.8 336.5" style="enable-background:new 0 0 313.8 336.5;" xml:space="preserve">
<style type="text/css">
	.st0{fill:#FCFCFC;stroke:#000000;stroke-width:9;stroke-miterlimit:10;}
</style>
<path id="camera" class="st0" d="M289.3,252.1l-50.7-16.3c-6.1,0-9.6,0.1-9.6-7.4V195c0-7.5,5.1-13.7,11.2-13.7l43.2-15.6
	c6.1,0,10.3,1.8,10.3,9.3l1.6,61C295.4,243.5,295.5,252.1,289.3,252.1z"/>
<path id="body" class="st0" d="M220.8,268.3h-193c-6.6,0-12-5.4-12-12V152.2c0-6.6,5.4-12,12-12h193c6.6,0,12,5.4,12,12v104.1
	C232.8,262.9,227.4,268.3,220.8,268.3z"/>
<circle id="circle2" class="st0" cx="67.1" cy="105.2" r="35.3"/>
<circle id="circle1" class="st0" cx="168.8" cy="93.8" r="46.8"/>
<path id="detail" d="M210.6,157.9h-65.5c-1.3,0-2.4,1.1-2.4,2.4v5.8c0,1.3,1.1,2.4,2.4,2.4h65.5c1.3,0,2.4-1.1,2.4-2.4v-5.8
	C213,159,211.9,157.9,210.6,157.9z"/>
</svg>
