<?xml version="1.0" encoding="utf-8"?>
<!-- Generator: Adobe Illustrator 24.0.3, SVG Export Plug-In . SVG Version: 6.00 Build 0)  -->
<svg version="1.1" id="musicnotes" xmlns="http://www.w3.org/2000/svg" xmlns:xlink="http://www.w3.org/1999/xlink" x="0px" y="0px"
	 viewBox="0 0 313.8 336.5" style="enable-background:new 0 0 313.8 336.5;" xml:space="preserve">
<style type="text/css">
	.st0{fill:#FFFFFF;}
	.st1{fill:none;stroke:#000000;stroke-width:9;stroke-miterlimit:10;}
	.st2{fill:#020202;stroke:#020202;stroke-miterlimit:10;}
</style>
<path id="hilight3" class="st0" d="M113.6,276.1c0,0-11.2-1-13.5,13.7C100.1,289.8,104.7,279.9,113.6,276.1z"/>
<line id="line2" class="st1" x1="139.5" y1="124.9" x2="156.4" y2="292.5"/>
<ellipse id="circle2" transform="matrix(0.9995 -3.213136e-02 3.213136e-02 0.9995 -9.4045 4.1847)" cx="125.5" cy="294.7" rx="36" ry="28.6"/>
<polygon id="connectline" points="288.5,137.3 142,167.6 138.8,124.7 284.3,97.5 "/>
<line id="line3" class="st1" x1="281.8" y1="98.4" x2="299.5" y2="266"/>
<ellipse id="circle3" transform="matrix(0.9993 -3.644213e-02 3.644213e-02 0.9993 -9.5987 9.9662)" cx="268.6" cy="268.3" rx="36" ry="28.6"/>
<path id="addon" class="st2" d="M150.7,90c0,0-1.7-37.1-40.7-44.3c-10.9-2-19.6-10.5-21.3-21.5c-0.2-1.1-0.3-2.3-0.5-3.5
	c-1.1-9.9-2.9-7.8-3.7-4.9c-0.3,1.3-0.4,2.7-0.3,4l3.3,41C87.5,60.7,126.9,38.3,150.7,90z"/>
<line id="line1" class="st1" x1="90.4" y1="47.1" x2="100.4" y2="186.3"/>
<ellipse id="circle1" transform="matrix(0.9995 -3.213136e-02 3.213136e-02 0.9995 -6.0206 2.353)" cx="70.2" cy="188.5" rx="35.1" ry="27.9"/>
<path id="highlight1" class="st0" d="M59.8,170.4c0,0-10.9-1-13.2,13.3C46.7,183.7,51.1,174,59.8,170.4z"/>
</svg>
