<?xml version="1.0" encoding="utf-8"?>
<!-- Generator: Adobe Illustrator 24.0.3, SVG Export Plug-In . SVG Version: 6.00 Build 0)  -->
<svg version="1.1" id="paintbrush" xmlns="http://www.w3.org/2000/svg" xmlns:xlink="http://www.w3.org/1999/xlink" x="0px" y="0px"
	 viewBox="0 0 313.8 336.5" style="enable-background:new 0 0 313.8 336.5;" xml:space="preserve">
<style type="text/css">
	.st0{fill:#FFFFFF;stroke:#000000;stroke-width:5;stroke-miterlimit:10;}
	.st1{fill:#FFFFFF;stroke:#000000;stroke-width:5;stroke-miterlimit:9.9999;}
	.st2{fill:#FCFCFC;stroke:#000000;stroke-width:5;stroke-miterlimit:10;}
</style>
<path id="handle" class="st0" d="M197.9,77.4L42.4,192c0,0-30.2-29.9,43.8-80.3L38.7,52.3c-7.1-8.9-5.4-22,3.8-28.7l0,0
	c9.2-6.8,22.2-4.5,28.6,4.9l42.1,62.1C113.1,90.6,161.6,50.2,197.9,77.4z"/>
<ellipse id="loop" transform="matrix(0.8049 -0.5934 0.5934 0.8049 -15.0964 42.8529)" class="st1" cx="57.6" cy="44.4" rx="10.2" ry="12.4"/>
<polygon id="metal" class="st0" points="46.3,197.4 66.1,224.4 222.9,110.6 202.2,82.8 "/>
<polygon id="brush" class="st0" points="70.9,230 135.4,319.1 292.1,205.3 226.9,115.4 "/>
<path id="paint" class="st2" d="M105.1,278.1c0,0,18-45.7,72.6-57.8c6.4-1.4,12.5-2.1,18.2-2.2c14-0.4,58.7-5.1,69-49l27.1,36.3
	L135.4,319.1L105.1,278.1z"/>
</svg>
