<?xml version="1.0" encoding="utf-8"?>
<!-- Generator: Adobe Illustrator 24.0.3, SVG Export Plug-In . SVG Version: 6.00 Build 0)  -->
<svg version="1.1" id="pencil" xmlns="http://www.w3.org/2000/svg" xmlns:xlink="http://www.w3.org/1999/xlink" x="0px" y="0px"
	 viewBox="0 0 313.8 336.5" style="enable-background:new 0 0 313.8 336.5;" xml:space="preserve">
<style type="text/css">
	.st0{fill:#FCFCFC;stroke:#000000;stroke-width:5;stroke-miterlimit:10;}
	.st1{fill:#FFFFFF;stroke:#000000;stroke-width:5;stroke-miterlimit:10;}
	.st2{stroke:#000000;stroke-width:5;stroke-miterlimit:10;}
	.st3{fill:none;stroke:#000000;stroke-width:3;stroke-miterlimit:10;}
</style>
<path id="pencilbody" class="st0" d="M114.1,278.3L80.6,261c-5.9-3-8.2-10.3-5.1-16.2l100-197.6c3-5.9,10.3-8.2,16.2-5.1l33.5,17.3
	c5.9,3,8.2,10.3,5.1,16.2l-100,197.6C127.3,279,120,281.3,114.1,278.3z"/>
<polygon id="penciltip" class="st1" points="126.9,279.1 78.7,308.3 73.7,251.2 "/>
<polygon id="lead" class="st2" points="77.5,288.3 95.5,296.9 78.7,308.3 "/>
<line id="line3" class="st3" x1="181" y1="72.8" x2="86.7" y2="255.8"/>
<line id="line2" class="st3" x1="193.5" y1="80.2" x2="99.2" y2="263.2"/>
<line id="line1" class="st3" x1="206.3" y1="88.4" x2="112" y2="271.4"/>
<path id="eraser" class="st0" d="M230.3,75.5l-9.1,17.8L167,63.8l8.6-16.6c0,0,4.8-9.8,16.2-5.1c11.3,4.7,33.5,17.3,33.5,17.3
	S235.7,65.4,230.3,75.5z"/>
</svg>
