<?xml version="1.0" encoding="utf-8"?>
<!-- Generator: Adobe Illustrator 24.0.3, SVG Export Plug-In . SVG Version: 6.00 Build 0)  -->
<svg version="1.1" id="roller" xmlns="http://www.w3.org/2000/svg" xmlns:xlink="http://www.w3.org/1999/xlink" x="0px" y="0px"
	 viewBox="0 0 313.8 336.5" style="enable-background:new 0 0 313.8 336.5;" xml:space="preserve">
<style type="text/css">
	.st0{fill:none;stroke:#000000;stroke-width:6;stroke-miterlimit:10;}
	.st1{fill:#FCFCFC;stroke:#000000;stroke-width:6;stroke-miterlimit:10;}
</style>
<path id="handle" class="st0" d="M279.7,205.5H208c-6.6,0-12-5.4-12-12v-29.9c0-6.6,5.4-12,12-12h71.7c6.6,0,12,5.4,12,12v29.9
	C291.7,200.1,286.3,205.5,279.7,205.5z"/>
<path id="sponge" class="st1" d="M111,303.1H60.2c-6.6,0-12-5.4-12-12V64.5c0-6.6,5.4-12,12-12H111c6.6,0,12,5.4,12,12v226.6
	C123,297.7,117.6,303.1,111,303.1z"/>
<polyline id="wire" class="st0" points="196.1,177 168.2,177 168.2,22.9 84.4,22.9 84.4,52.7 "/>
</svg>
