<?xml version="1.0" encoding="utf-8"?>
<!-- Generator: Adobe Illustrator 24.0.3, SVG Export Plug-In . SVG Version: 6.00 Build 0)  -->
<svg version="1.1" id="camera" xmlns="http://www.w3.org/2000/svg" xmlns:xlink="http://www.w3.org/1999/xlink" x="0px" y="0px"
	 viewBox="0 0 313.8 336.5" style="enable-background:new 0 0 313.8 336.5;" xml:space="preserve">
<style type="text/css">
	.st0{fill:#020202;stroke:#000000;stroke-width:5;stroke-miterlimit:10;}
	.st1{stroke:#000000;stroke-width:5;stroke-miterlimit:10;}
	.st2{fill:#FFFFFF;}
	.st3{fill:#FCFCFC;}
</style>
<path id="body" class="st0" d="M263.5,250.4H50c-6.6,0-12-5.4-12-12V120.2c0-6.6,5.4-12,12-12h213.5c6.6,0,12,5.4,12,12v118.3
	C275.5,245,270.1,250.4,263.5,250.4z"/>
<path id="button" class="st1" d="M98,109H79.7c-3.4,0-6.2-2.8-6.2-6.2l0,0c0-3.4,2.8-6.2,6.2-6.2H98c3.4,0,6.2,2.8,6.2,6.2l0,0
	C104.2,106.2,101.4,109,98,109z"/>
<path id="toppiece_2_" class="st1" d="M134,106l9.3-16.8c0.7-1.3,2-2.1,3.5-2.1l35.6-0.1c1.2,0,2.4,0.6,3.1,1.5l10,18.1L134,106z"/>
<g id="flash">
	<path class="st2" d="M222.4,138.9c-3.1,0-5.7-2.6-5.7-5.7c0-3.1,2.6-5.7,5.7-5.7h18.3c3.1,0,5.7,2.6,5.7,5.7c0,3.1-2.6,5.7-5.7,5.7
		H222.4z"/>
	<path class="st2" d="M240.8,128c2.9,0,5.2,2.3,5.2,5.2s-2.3,5.2-5.2,5.2h-18.3c-2.9,0-5.2-2.3-5.2-5.2s2.3-5.2,5.2-5.2H240.8
		 M240.8,127h-18.3c-3.4,0-6.2,2.8-6.2,6.2l0,0c0,3.4,2.8,6.2,6.2,6.2h18.3c3.4,0,6.2-2.8,6.2-6.2l0,0
		C247,129.8,244.2,127,240.8,127L240.8,127z"/>
</g>
<g id="lens">
	<ellipse class="st3" cx="164.5" cy="188.4" rx="42" ry="42"/>
	<path class="st3" d="M164.5,150.4c21,0,38,17.1,38,38c0,21-17.1,38-38,38s-38-17.1-38-38C126.4,167.4,143.5,150.4,164.5,150.4
		 M164.5,142.4c-25.4,0-46,20.6-46,46s20.6,46,46,46s46-20.6,46-46S189.9,142.4,164.5,142.4L164.5,142.4z"/>
</g>
</svg>
