<?xml version="1.0" encoding="utf-8"?>
<!-- Generator: Adobe Illustrator 24.0.3, SVG Export Plug-In . SVG Version: 6.00 Build 0)  -->
<svg version="1.1" id="masks" xmlns="http://www.w3.org/2000/svg" xmlns:xlink="http://www.w3.org/1999/xlink" x="0px" y="0px"
	 viewBox="0 0 313.8 336.5" style="enable-background:new 0 0 313.8 336.5;" xml:space="preserve">
<style type="text/css">
	.st0{fill:#020002;stroke:#000000;stroke-width:5;stroke-miterlimit:10;}
	.st1{fill:#FFFFFF;stroke:#000000;stroke-width:5;stroke-miterlimit:10;}
	.st2{stroke:#000000;stroke-width:5;stroke-miterlimit:10;}
</style>
<path id="sface" class="st0" d="M27.1,65.5c19.4-11.5,73.8-39,145.6-34.5c4.2,0.3,7.5,3.6,7.8,7.7C182.7,70,189,194.4,152,216.7
	c-32.3,19.5-85.8-15.1-129.6-138C20.6,73.8,22.6,68.2,27.1,65.5z"/>
<path id="ssmile" class="st1" d="M92.9,183.8c0,0,15.6-85.6,75.3-15.1C168.3,168.7,122.9,143,92.9,183.8"/>
<path id="hface" class="st1" d="M135.7,124c22.4-2.2,83.3-4.1,146.5,30.3c3.7,2,5.3,6.4,3.8,10.3c-11.3,29.3-58.3,144.7-101.2,149.2
	c-37.5,4-71.3-50-59-179.8C126.2,128.8,130.4,124.6,135.7,124z"/>
<path id="sye2" class="st1" d="M52.2,109.6c0,0,11.9-28,47.6-10.3C99.8,99.3,88.1,129.9,52.2,109.6z"/>
<path id="seye1" class="st1" d="M120.9,95.8c0,0,8.9-29.1,46.2-15.2C167.2,80.5,158.7,112.2,120.9,95.8z"/>
<path id="heye2" class="st2" d="M140.4,176c0,0,23.3-19.5,47,12.5C187.4,188.5,163,210.4,140.4,176z"/>
<path id="heye1" class="st2" d="M207.9,195c0,0,21.2-21.8,48.1,7.5C256,202.5,234,226.9,207.9,195z"/>
<path id="hsmile_2_" class="st2" d="M150,237c0,0,30.9,42,74.9,17C224.9,254.1,175.7,325.8,150,237z"/>
</svg>
